<svg xmlns="http://www.w3.org/2000/svg" viewBox="0 0 800 600" fill="none">
  <defs>
    <linearGradient id="bg" x1="0" y1="0" x2="800" y2="600" gradientUnits="userSpaceOnUse">
      <stop offset="0%" stop-color="#f0edff"/>
      <stop offset="100%" stop-color="#e8e4ff"/>
    </linearGradient>
    <linearGradient id="accent" x1="0" y1="0" x2="1" y2="1">
      <stop offset="0%" stop-color="#462CED"/>
      <stop offset="100%" stop-color="#6B5CF7"/>
    </linearGradient>
    <linearGradient id="dark" x1="0" y1="0" x2="1" y2="1">
      <stop offset="0%" stop-color="#374151"/>
      <stop offset="100%" stop-color="#4B5563"/>
    </linearGradient>
  </defs>
  <rect width="800" height="600" rx="24" fill="url(#bg)"/>
  <rect x="120" y="380" width="560" height="12" rx="6" fill="#374151" opacity="0.15"/>
  <g transform="translate(180, 290)">
    <rect x="0" y="40" width="120" height="8" rx="4" fill="#9CA3AF"/>
    <rect x="10" y="0" width="100" height="42" rx="6" fill="#374151"/>
    <rect x="15" y="5" width="90" height="32" rx="3" fill="#462CED" opacity="0.2"/>
    <rect x="22" y="12" width="40" height="3" rx="1.5" fill="#462CED" opacity="0.5"/>
    <rect x="22" y="19" width="55" height="3" rx="1.5" fill="#462CED" opacity="0.3"/>
    <rect x="22" y="26" width="30" height="3" rx="1.5" fill="#462CED" opacity="0.4"/>
  </g>
  <g transform="translate(500, 290)">
    <rect x="0" y="40" width="120" height="8" rx="4" fill="#9CA3AF"/>
    <rect x="10" y="0" width="100" height="42" rx="6" fill="#374151"/>
    <rect x="15" y="5" width="90" height="32" rx="3" fill="#462CED" opacity="0.2"/>
    <rect x="25" y="25" width="8" height="8" rx="1" fill="#462CED" opacity="0.4"/>
    <rect x="37" y="18" width="8" height="15" rx="1" fill="#462CED" opacity="0.5"/>
    <rect x="49" y="12" width="8" height="21" rx="1" fill="#462CED" opacity="0.6"/>
    <rect x="61" y="15" width="8" height="18" rx="1" fill="#462CED" opacity="0.5"/>
    <rect x="73" y="9" width="8" height="24" rx="1" fill="#462CED" opacity="0.7"/>
  </g>
  <g transform="translate(280, 140)">
    <rect x="0" y="80" width="70" height="100" rx="14" fill="url(#accent)"/>
    <circle cx="35" cy="55" r="32" fill="#F9DCCF"/>
    <ellipse cx="35" cy="38" rx="30" ry="20" fill="#374151"/>
    <path d="M25 62 Q35 72 45 62" stroke="#374151" stroke-width="2" fill="none" stroke-linecap="round"/>
    <circle cx="25" cy="52" r="3" fill="#374151"/>
    <circle cx="45" cy="52" r="3" fill="#374151"/>
    <path d="M70 110 Q100 120 130 115" stroke="#462CED" stroke-width="14" fill="none" stroke-linecap="round"/>
    <circle cx="130" cy="115" r="10" fill="#F9DCCF"/>
  </g>
  <g transform="translate(450, 140)">
    <rect x="0" y="80" width="70" height="100" rx="14" fill="url(#dark)"/>
    <circle cx="35" cy="55" r="32" fill="#D4A987"/>
    <ellipse cx="35" cy="38" rx="30" ry="20" fill="#1F2937"/>
    <path d="M25 62 Q35 72 45 62" stroke="#1F2937" stroke-width="2" fill="none" stroke-linecap="round"/>
    <circle cx="25" cy="52" r="3" fill="#1F2937"/>
    <circle cx="45" cy="52" r="3" fill="#1F2937"/>
    <path d="M0 110 Q-30 120 -60 115" stroke="#374151" stroke-width="14" fill="none" stroke-linecap="round"/>
    <circle cx="-60" cy="115" r="10" fill="#D4A987"/>
  </g>
  <g transform="translate(400, 245)">
    <circle cx="0" cy="0" r="18" fill="#462CED" opacity="0.15"/>
    <circle cx="0" cy="0" r="10" fill="#462CED" opacity="0.25"/>
    <line x1="-22" y1="-22" x2="-30" y2="-30" stroke="#462CED" stroke-width="2.5" stroke-linecap="round" opacity="0.5"/>
    <line x1="22" y1="-22" x2="30" y2="-30" stroke="#462CED" stroke-width="2.5" stroke-linecap="round" opacity="0.5"/>
    <line x1="0" y1="-25" x2="0" y2="-35" stroke="#462CED" stroke-width="2.5" stroke-linecap="round" opacity="0.5"/>
    <line x1="-25" y1="5" x2="-33" y2="5" stroke="#462CED" stroke-width="2.5" stroke-linecap="round" opacity="0.4"/>
    <line x1="25" y1="5" x2="33" y2="5" stroke="#462CED" stroke-width="2.5" stroke-linecap="round" opacity="0.4"/>
  </g>
  <g transform="translate(140, 120)" opacity="0.2">
    <circle cx="0" cy="0" r="16" stroke="#462CED" stroke-width="3" fill="none"/>
    <circle cx="0" cy="0" r="6" fill="#462CED"/>
  </g>
  <g transform="translate(650, 130)" opacity="0.2">
    <circle cx="0" cy="0" r="6" fill="#462CED"/>
    <circle cx="30" cy="-15" r="4" fill="#462CED"/>
    <circle cx="35" cy="20" r="5" fill="#462CED"/>
    <line x1="0" y1="0" x2="30" y2="-15" stroke="#462CED" stroke-width="1.5"/>
    <line x1="0" y1="0" x2="35" y2="20" stroke="#462CED" stroke-width="1.5"/>
    <line x1="30" y1="-15" x2="35" y2="20" stroke="#462CED" stroke-width="1.5"/>
  </g>
  <g transform="translate(400, 480)" opacity="0.12">
    <circle cx="-80" cy="0" r="4" fill="#462CED"/>
    <circle cx="-40" cy="0" r="4" fill="#462CED"/>
    <circle cx="0" cy="0" r="4" fill="#462CED"/>
    <circle cx="40" cy="0" r="4" fill="#462CED"/>
    <circle cx="80" cy="0" r="4" fill="#462CED"/>
    <line x1="-80" y1="0" x2="80" y2="0" stroke="#462CED" stroke-width="1.5"/>
    <circle cx="0" cy="-30" r="4" fill="#462CED"/>
    <line x1="0" y1="0" x2="0" y2="-30" stroke="#462CED" stroke-width="1.5"/>
  </g>
  <g transform="translate(660, 350)" opacity="0.18">
    <ellipse cx="0" cy="-8" rx="12" ry="15" stroke="#462CED" stroke-width="2.5" fill="none"/>
    <line x1="-6" y1="8" x2="6" y2="8" stroke="#462CED" stroke-width="2.5" stroke-linecap="round"/>
    <line x1="-4" y1="13" x2="4" y2="13" stroke="#462CED" stroke-width="2" stroke-linecap="round"/>
  </g>
  <g transform="translate(130, 320)" opacity="0.15">
    <rect x="-18" y="-14" width="36" height="24" rx="6" stroke="#462CED" stroke-width="2.5" fill="none"/>
    <polygon points="-5,10 5,10 0,18" fill="#462CED" opacity="0.3"/>
  </g>
</svg>